<?xml version="1.0" encoding="utf-8"?>
<!-- Generated by Mocodo 4.2.12 -->
<svg width="306" height="356" viewBox="0 0 306 356" xmlns="http://www.w3.org/2000/svg">
<rect x="0" y="0" width="306" height="356" fill="#f7f7f7" stroke="none" stroke-width="0"/>

<!-- Association CREATE -->
<g>
	<line x1="53" y1="203" x2="53" y2="68" stroke="#4393c3" stroke-width="2"/>
	<line x1="157" y1="68" x2="53" y2="68" stroke="#4393c3" stroke-width="2"/>
	<g>
		<path d="M71 43 a14 14 90 0 1 14 14 V68 h-64 V57 a14 14 90 0 1 14 -14" fill="#92c5de" stroke="#92c5de" stroke-width="0"/>
		<path d="M85 68 v11 a14 14 90 0 1 -14 14 H35 a14 14 90 0 1 -14 -14 V68 H64" fill="#d1e5f0" stroke="#d1e5f0" stroke-width="0"/>
		<rect x="21" y="43" width="64" height="50" fill="none" rx="14" stroke="#4393c3" stroke-width="2"/>
		<line x1="21" y1="68" x2="85" y2="68" stroke="#4393c3" stroke-width="1"/>
		<text x="29" y="60.75" fill="#000000" font-family="Verdana" font-size="12">CREATE</text>
	</g>
	<text x="58" y="161" fill="#b2182b" font-family="Verdana" font-size="12">1,1</text>
	<text x="96" y="85" fill="#b2182b" font-family="Verdana" font-size="12">0,N</text>
</g>

<!-- Association WRITE -->
<g>
	<line x1="157" y1="68" x2="157" y2="203" stroke="#4393c3" stroke-width="2"/>
	<line x1="257" y1="203" x2="157" y2="203" stroke="#4393c3" stroke-width="2"/>
	<g>
		<path d="M171 178 a14 14 90 0 1 14 14 V203 h-56 V192 a14 14 90 0 1 14 -14" fill="#92c5de" stroke="#92c5de" stroke-width="0"/>
		<path d="M185 203 v11 a14 14 90 0 1 -14 14 H143 a14 14 90 0 1 -14 -14 V203 H56" fill="#d1e5f0" stroke="#d1e5f0" stroke-width="0"/>
		<rect x="129" y="178" width="56" height="50" fill="none" rx="14" stroke="#4393c3" stroke-width="2"/>
		<line x1="129" y1="203" x2="185" y2="203" stroke="#4393c3" stroke-width="1"/>
		<text x="137" y="195.75" fill="#000000" font-family="Verdana" font-size="12">WRITE</text>
	</g>
	<text x="162" y="144" fill="#b2182b" font-family="Verdana" font-size="12">0,N</text>
	<text x="191" y="220" fill="#b2182b" font-family="Verdana" font-size="12">1,1</text>
</g>

<!-- Association BELONG -->
<g>
	<line x1="53" y1="203" x2="53" y2="313" stroke="#4393c3" stroke-width="2"/>
	<line x1="157" y1="313" x2="53" y2="313" stroke="#4393c3" stroke-width="2"/>
	<g>
		<path d="M72 288 a14 14 90 0 1 14 14 V313 h-66 V302 a14 14 90 0 1 14 -14" fill="#92c5de" stroke="#92c5de" stroke-width="0"/>
		<path d="M86 313 v11 a14 14 90 0 1 -14 14 H34 a14 14 90 0 1 -14 -14 V313 H66" fill="#d1e5f0" stroke="#d1e5f0" stroke-width="0"/>
		<rect x="20" y="288" width="66" height="50" fill="none" rx="14" stroke="#4393c3" stroke-width="2"/>
		<line x1="20" y1="313" x2="86" y2="313" stroke="#4393c3" stroke-width="1"/>
		<text x="28" y="305.75" fill="#000000" font-family="Verdana" font-size="12">BELONG</text>
	</g>
	<text x="58" y="254" fill="#b2182b" font-family="Verdana" font-size="12">1,1</text>
	<text x="93" y="330" fill="#b2182b" font-family="Verdana" font-size="12">0,N</text>
</g>

<!-- Entity USERS -->
<g>
	<g>
		<rect x="123" y="9" width="68" height="25" fill="#f4a582" stroke="none" stroke-width="0" opacity="1"/>
		<rect x="123" y="34" width="68" height="93" fill="#fddbc7" stroke="none" stroke-width="0" opacity="1"/>
		<rect x="123" y="9" width="68" height="118" fill="none" stroke="#d6604d" stroke-width="2" opacity="1"/>
		<line x1="123" y1="34" x2="191" y2="34" stroke="#d6604d" stroke-width="1"/>
	</g>
	<text x="136" y="26.75" fill="#000000" font-family="Verdana" font-size="12">USERS</text>
	<text x="128" y="51.8" fill="#000000" font-family="Verdana" font-size="12">id_users</text>
	<line x1="128" y1="54" x2="180" y2="54" stroke="#000000" stroke-width="1"/>
	<text x="128" y="68.8" fill="#000000" font-family="Verdana" font-size="12">firstname</text>
	<text x="128" y="85.8" fill="#000000" font-family="Verdana" font-size="12">lastname</text>
	<text x="128" y="102.8" fill="#000000" font-family="Verdana" font-size="12">email</text>
	<text x="128" y="119.8" fill="#000000" font-family="Verdana" font-size="12">password</text>
</g>

<!-- Entity QUESTIONS -->
<g>
	<g>
		<rect x="9" y="169" width="88" height="25" fill="#f4a582" stroke="none" stroke-width="0" opacity="1"/>
		<rect x="9" y="194" width="88" height="43" fill="#fddbc7" stroke="none" stroke-width="0" opacity="1"/>
		<rect x="9" y="169" width="88" height="68" fill="none" stroke="#d6604d" stroke-width="2" opacity="1"/>
		<line x1="9" y1="194" x2="97" y2="194" stroke="#d6604d" stroke-width="1"/>
	</g>
	<text x="16" y="186.75" fill="#000000" font-family="Verdana" font-size="12">QUESTIONS</text>
	<text x="14" y="211.8" fill="#000000" font-family="Verdana" font-size="12">id_questions</text>
	<line x1="14" y1="214" x2="91" y2="214" stroke="#000000" stroke-width="1"/>
	<text x="14" y="228.8" fill="#000000" font-family="Verdana" font-size="12">content</text>
</g>

<!-- Entity ANSWERS -->
<g>
	<g>
		<rect x="217" y="152" width="80" height="25" fill="#f4a582" stroke="none" stroke-width="0" opacity="1"/>
		<rect x="217" y="177" width="80" height="77" fill="#fddbc7" stroke="none" stroke-width="0" opacity="1"/>
		<rect x="217" y="152" width="80" height="102" fill="none" stroke="#d6604d" stroke-width="2" opacity="1"/>
		<line x1="217" y1="177" x2="297" y2="177" stroke="#d6604d" stroke-width="1"/>
	</g>
	<text x="226" y="169.75" fill="#000000" font-family="Verdana" font-size="12">ANSWERS</text>
	<text x="222" y="194.8" fill="#000000" font-family="Verdana" font-size="12">id_answers</text>
	<line x1="222" y1="197" x2="291" y2="197" stroke="#000000" stroke-width="1"/>
	<text x="222" y="211.8" fill="#000000" font-family="Verdana" font-size="12">content</text>
	<text x="222" y="228.8" fill="#000000" font-family="Verdana" font-size="12">like</text>
	<text x="222" y="245.8" fill="#000000" font-family="Verdana" font-size="12">dislike</text>
</g>

<!-- Entity THEMES -->
<g>
	<g>
		<rect x="120" y="279" width="74" height="25" fill="#f4a582" stroke="none" stroke-width="0" opacity="1"/>
		<rect x="120" y="304" width="74" height="43" fill="#fddbc7" stroke="none" stroke-width="0" opacity="1"/>
		<rect x="120" y="279" width="74" height="68" fill="none" stroke="#d6604d" stroke-width="2" opacity="1"/>
		<line x1="120" y1="304" x2="194" y2="304" stroke="#d6604d" stroke-width="1"/>
	</g>
	<text x="132" y="296.75" fill="#000000" font-family="Verdana" font-size="12">THEMES</text>
	<text x="125" y="321.8" fill="#000000" font-family="Verdana" font-size="12">id_themes</text>
	<line x1="125" y1="324" x2="189" y2="324" stroke="#000000" stroke-width="1"/>
	<text x="125" y="338.8" fill="#000000" font-family="Verdana" font-size="12">name</text>
</g>
</svg>